<?xml version="1.0" standalone="no"?>
<!DOCTYPE svg PUBLIC "-//W3C//DTD SVG 20010904//EN"
 "http://www.w3.org/TR/2001/REC-SVG-20010904/DTD/svg10.dtd">
<svg version="1.0" xmlns="http://www.w3.org/2000/svg"
 width="512.000000pt" height="512.000000pt" viewBox="0 0 512.000000 512.000000"
 preserveAspectRatio="xMidYMid meet">

<g transform="translate(0.000000,512.000000) scale(0.100000,-0.100000)"
fill="#000000" stroke="none">
<path d="M2410 4335 c-730 -121 -1281 -664 -1432 -1415 -20 -100 -23 -145 -23
-345 0 -234 6 -296 46 -460 107 -435 366 -818 712 -1054 27 -18 50 -31 52 -29
2 2 -12 39 -31 82 -147 334 -192 791 -113 1156 16 72 22 137 23 270 3 235 30
350 124 535 137 267 374 464 652 541 51 15 102 19 235 19 206 0 280 -17 451
-100 134 -66 194 -80 278 -64 78 14 128 40 192 100 126 120 145 318 43 459
-74 102 -346 232 -614 292 -119 26 -467 34 -595 13z" fill="#1d48f6"/>
<path d="M2895 2711 c-108 -17 -212 -97 -263 -201 -23 -47 -27 -68 -27 -140 0
-72 4 -94 29 -147 33 -73 103 -144 174 -176 46 -22 58 -22 617 -27 l570 -5 55
-26 c31 -14 73 -41 95 -60 l38 -34 -7 99 c-22 299 -165 522 -412 645 -130 65
-186 73 -519 76 -165 2 -323 0 -350 -4z" fill="#e51b1b"/>
<path d="M1681 2150 c-6 -36 -14 -128 -17 -205 -14 -302 50 -608 184 -884 l55
-113 82 -39 c207 -97 407 -139 658 -139 332 1 615 77 892 241 260 153 496 399
606 632 41 88 29 145 -48 219 -75 73 -98 78 -364 78 l-236 0 -36 -53 c-44 -63
-163 -183 -232 -233 -74 -54 -218 -119 -320 -145 -127 -33 -340 -33 -469 -1
-249 62 -469 217 -607 425 -49 76 -70 118 -128 262 -6 15 -11 4 -20 -45z" fill="#1d48f6"/>
</g>
</svg>
